<svg xmlns="http://www.w3.org/2000/svg" viewBox="0 0 120 120">
  <circle cx="60" cy="60" r="56" fill="#FFF2DA"/>
  <path d="M60 22c8 0 14 6 14 14-8-2-14-5-18-10 1-2 2-4 4-4z" fill="#F08D64"/>
  <path d="M44 30c6 0 10 4 10 10-6-1-10-3-13-7 1-2 2-3 3-3z" fill="#F5B24C"/>
  <circle cx="60" cy="66" r="30" fill="#FFFDF8"/>
  <circle cx="48" cy="60" r="4" fill="#433328"/>
  <circle cx="72" cy="60" r="4" fill="#433328"/>
  <path d="M60 71l7 5h-14z" fill="#F2B24D"/>
  <path d="M52 82c4 4 12 4 16 0" fill="none" stroke="#433328" stroke-width="4" stroke-linecap="round"/>
  <text x="60" y="108" text-anchor="middle" font-family="Arial" font-size="14" font-weight="700" fill="#B47A32">JI</text>
</svg>
